<svg width="26" height="158" viewBox="0 0 26 158" fill="none" xmlns="http://www.w3.org/2000/svg">
<path d="M23.6691 1.46245C23.869 0.963233 24.1263 0.550551 24.3179 0.459806C24.5256 0.381749 24.6826 0.405 24.8089 0.752857C24.9638 1.18125 25.0116 1.85776 25.022 2.671C25.0324 3.48424 25.0437 4.26506 25.0233 5.13716C25.0046 6.01895 24.9706 6.93017 24.9347 7.83169C24.8713 9.56654 24.7824 11.3893 24.6565 13.1998C24.5389 14.942 24.4196 16.6746 24.3002 18.4072C24.224 19.5427 24.1542 20.6749 24.0608 21.8301C23.9066 23.7513 23.7552 25.6496 23.6011 27.5708C23.5067 28.7585 23.4222 29.9622 23.3124 31.1793C22.9904 34.7204 22.6713 38.2387 22.3494 41.7798C22.2795 42.5717 22.197 43.3703 22.11 44.182C21.893 46.3278 21.6696 48.4769 21.4544 50.6324C21.3004 52.1387 21.1438 53.6677 20.9916 55.1837C20.885 56.229 20.7503 57.3105 20.6264 58.3755C20.2059 62.022 19.7853 65.6684 19.3648 69.3148C19.2409 70.3799 19.0827 71.4844 18.9462 72.5562C18.6485 74.8297 18.3572 77.0999 18.0595 79.3734C17.8862 80.6986 17.7175 82.0107 17.5442 83.3358C17.3893 84.5343 17.1983 85.7625 17.029 86.9579C16.523 90.4795 16.0171 94.0009 15.513 97.5321C15.3253 98.8543 15.0996 100.197 14.8911 101.519C14.5421 103.777 14.1912 106.026 13.8421 108.284C13.7007 109.178 13.572 110.064 13.4179 110.965C13.3097 111.586 13.2033 112.216 13.0997 112.824C13.5053 112.992 13.9063 113.173 14.3056 113.345C15.0671 113.675 15.8708 113.781 16.6122 114.229C17.05 114.497 17.4773 114.973 17.7745 115.836C18.0547 116.645 18.2833 117.853 18.2219 119.523C18.1937 120.24 18.1338 121.048 18.0052 121.86C17.8766 122.672 17.7303 123.388 17.5369 124.149C17.3335 124.97 17.076 125.723 16.8333 126.404C16.4841 127.376 16.1207 128.27 15.7619 129.151C14.8198 131.468 13.8618 133.697 12.9232 136.034C12.38 137.384 11.8412 138.722 11.2979 140.073C10.7791 141.368 10.271 142.722 9.7639 144.043C8.88034 146.414 7.99855 148.795 7.11855 151.185C6.54579 152.753 5.95938 154.361 5.36193 155.719C4.90701 156.758 4.36949 157.648 4.02856 157.265C3.73349 156.943 3.68578 155.586 3.85549 154.241C3.88042 154.037 3.90989 153.819 3.94292 153.621C3.9289 153.469 3.92121 153.313 3.92537 153.109C3.93694 149.881 4.00839 146.526 3.96559 143.38C3.93275 141.536 3.8491 139.794 3.74549 138.095C3.61893 136.535 3.49059 134.965 3.36403 133.405C3.30816 132.722 3.22777 132.095 3.15647 131.442C3.06247 130.513 2.96392 129.598 2.86814 128.66C2.56914 125.819 2.24563 123.035 1.91757 120.263C1.76626 119.173 1.61772 118.061 1.45277 117.011C1.33484 116.254 1.21868 115.508 1.10075 114.751C1.0156 114.211 0.928684 113.662 0.852637 113.096C0.798713 112.689 0.743009 112.272 0.718147 111.796C0.693286 111.32 0.683851 110.814 0.678956 110.296C0.651009 108.971 0.965042 107.316 1.4498 106.251C1.66767 105.775 1.8962 105.356 2.10039 105.258C2.29826 105.164 2.45421 105.22 2.61905 105.324C2.79022 105.425 2.97601 105.454 3.14718 105.555C3.47863 105.773 3.81187 106.001 4.14056 106.241C4.93035 106.802 5.72015 107.362 6.5054 107.935C7.9589 108.973 9.39046 110.119 10.8165 111.31C10.8345 111.333 10.8507 111.345 10.8732 111.355C11.1758 111.567 11.4766 111.769 11.7747 111.994C11.7948 111.877 11.815 111.76 11.8352 111.643C11.9718 110.837 12.0976 110.047 12.2244 109.225C12.5578 107.071 12.8958 104.904 13.2338 102.736C13.4874 101.092 13.7473 99.4449 14.0008 97.8008C14.1505 96.839 14.2823 95.8549 14.4193 94.8998C14.9364 91.2873 15.4506 87.6976 15.9648 84.1079C16.5667 79.483 17.1669 74.8483 17.7688 70.2234C17.8526 69.5835 17.913 68.9668 17.9887 68.3206C18.1773 66.7003 18.3612 65.093 18.5452 63.4857C18.8132 61.1641 19.0785 58.8652 19.342 56.5565C19.6599 53.4854 19.9652 50.421 20.2813 47.3402C20.3963 46.2267 20.5067 45.1263 20.6216 44.0128C20.7449 42.8311 20.8347 41.6564 20.9408 40.4944C21.1911 37.7356 21.4667 34.9633 21.6826 32.244C21.9319 29.1773 22.1749 26.1139 22.4224 23.0375C22.5448 21.2077 22.6734 19.3745 22.7975 17.5544C23.0109 14.4429 23.1762 11.4101 23.2773 8.44311C23.2763 8.47553 23.2753 8.50795 23.2771 8.51765C23.2781 8.48522 23.2773 8.4431 23.2828 8.39763C23.2838 8.36521 23.2848 8.33279 23.2876 8.31005C23.2848 8.33279 23.2866 8.34248 23.2856 8.37491C23.2957 7.97613 23.304 7.56765 23.3078 7.17222C23.1434 7.25927 22.9947 7.16781 22.9027 6.85502C22.6916 6.15861 22.8024 4.56877 23.1499 3.24716C23.2695 2.72662 23.4018 2.19937 23.5564 1.75602C23.5973 1.63866 23.6355 1.54404 23.6691 1.46245ZM6.63908 139.796C6.94006 138.296 7.23471 136.801 7.53391 135.292C7.79098 134.008 8.05616 132.729 8.29881 131.442C8.89406 128.256 9.49385 125.057 10.0909 121.881C10.3238 120.503 10.5586 119.134 10.7961 117.743C10.3656 117.44 9.93239 117.158 9.51378 116.806C8.94753 116.329 8.37672 115.866 7.81047 115.389C6.70562 114.549 5.59979 113.742 4.48941 112.947C3.99232 112.583 3.49247 112.241 2.99717 111.887C3.03707 112.142 3.0752 112.388 3.1151 112.643C3.27294 113.655 3.41259 114.719 3.55501 115.76C3.70809 116.859 3.83212 118.027 3.96702 119.178C4.07722 120.119 4.17656 121.077 4.28222 122.031C4.53482 124.354 4.77654 126.693 5.02004 129.041C5.12826 130.047 5.19834 131.148 5.28027 132.2C5.43309 134.054 5.55783 135.944 5.63256 137.978C5.70808 140.054 5.70926 142.255 5.6968 144.494C6.01695 142.911 6.32802 141.353 6.63908 139.796ZM16.4213 122.305C16.4468 122.217 16.4723 122.129 16.5024 122.028C16.5024 122.028 16.5006 122.018 16.5034 121.996C16.5034 121.996 16.5034 121.996 16.5016 121.986C16.5008 121.944 16.5 121.902 16.4929 121.863C16.4886 121.801 16.4815 121.763 16.4771 121.701C16.4469 121.536 16.4167 121.372 16.3864 121.207C16.3623 121.113 16.3354 121.043 16.3113 120.949C16.2396 120.785 16.1651 120.644 16.086 120.515C15.9351 120.297 15.7831 120.112 15.6157 119.956C15.268 119.725 14.9057 119.566 14.5406 119.43C14.1855 119.31 13.8192 119.28 13.4713 119.124C13.1685 118.986 12.8612 118.862 12.5584 118.725C12.4151 118.662 12.2672 118.613 12.1221 118.541C11.9378 119.617 11.7598 120.689 11.5755 121.765C11.4086 122.746 11.2237 123.706 11.0406 124.674C10.4829 127.649 9.93867 130.659 9.35036 133.618C8.73001 136.743 8.10967 139.868 7.48577 142.973C7.21406 144.329 6.94511 145.663 6.67795 147.005C6.64869 147.149 6.6212 147.301 6.58738 147.457C7.24556 145.674 7.90196 143.88 8.56191 142.106C9.33456 140.038 10.1161 138.019 10.8958 135.99C11.2948 134.95 11.7062 133.977 12.106 132.978C12.4294 132.169 12.7519 131.393 13.0726 130.606C14.0945 128.119 15.137 125.707 16.1404 123.081C16.1995 122.911 16.2649 122.739 16.3195 122.582C16.3549 122.51 16.3849 122.409 16.4213 122.305Z" fill="black"/>
</svg>
