<svg width="278" height="200" viewBox="0 0 278 200" fill="none" xmlns="http://www.w3.org/2000/svg">
<g clip-path="url(#clip0_20_148)">
<path d="M207.192 190.69C197.383 190.69 186.952 189.978 176.008 188.559C158.088 186.235 139.575 182.102 120.979 176.277C102.384 170.453 84.8225 163.284 68.7788 154.972C53.2803 146.942 39.8451 138.184 28.8456 128.947C17.8399 119.704 9.82577 110.444 5.02563 101.424C0.0478896 92.0673 -1.24018 83.3794 1.19696 75.5995C3.63409 67.8197 9.6497 61.4188 19.077 56.5761C28.1676 51.9064 40.0336 48.8735 54.3444 47.5609C68.6506 46.2498 84.6804 46.7239 101.99 48.9692C119.911 51.2948 138.424 55.4257 157.019 61.2505C175.614 67.0754 193.176 74.2437 209.22 82.5563C224.718 90.5863 238.153 99.3437 249.153 108.581C260.159 117.824 268.173 127.084 272.973 136.104C277.951 145.459 279.239 154.147 276.802 161.927C274.364 169.707 268.349 176.108 258.922 180.95C249.831 185.62 237.965 188.653 223.654 189.966C218.392 190.447 212.897 190.688 207.19 190.688L207.192 190.69ZM70.9085 47.0698C65.191 47.0698 59.665 47.3107 54.366 47.7956C40.0845 49.1051 28.2479 52.1303 19.1851 56.7861C9.8165 61.5995 3.84105 67.9525 1.42245 75.6706C-0.996155 83.3887 0.287278 92.0148 5.23413 101.313C10.0204 110.306 18.016 119.544 28.997 128.766C51.5953 147.743 84.2865 164.537 121.05 176.052C157.814 187.567 194.245 192.426 223.634 189.732C237.916 188.423 249.752 185.398 258.815 180.742C268.184 175.928 274.159 169.575 276.578 161.857C278.996 154.139 277.713 145.513 272.766 136.215C267.98 127.222 259.984 117.984 249.003 108.762C226.405 89.7849 193.714 72.9913 156.95 61.476C126.814 52.0361 96.9016 47.0698 70.9085 47.0698Z" fill="#484848"/>
<path d="M193.256 190.994C185.909 190.994 178.255 190.563 170.34 189.703C153.388 187.859 135.981 184.113 118.599 178.566C93.9038 170.684 71.0367 159.661 52.4694 146.69C34.3824 134.053 21.162 120.162 14.2352 106.512C11.4845 101.093 9.75936 95.7503 9.1076 90.6327C8.43732 85.3668 8.8991 80.2971 10.4806 75.5671C13.2776 67.2005 19.4029 60.1742 28.685 54.686C37.6397 49.3908 49.1427 45.7402 62.8743 43.8377C76.5998 41.9352 91.862 41.8735 108.238 43.654C125.19 45.4978 142.597 49.2441 159.978 54.7925C184.674 62.6743 207.541 73.697 226.108 86.6686C244.194 99.3051 257.416 113.197 264.342 126.845C267.093 132.264 268.818 137.607 269.47 142.724C270.14 147.99 269.679 153.06 268.097 157.79C265.3 166.157 259.175 173.183 249.893 178.671C240.938 183.966 229.435 187.617 215.703 189.519C208.613 190.501 201.11 190.994 193.256 190.994ZM85.4603 42.59C77.6083 42.59 70.0591 43.0795 62.9068 44.0709C34.7454 47.9747 16.2059 59.1874 10.7046 75.6428C7.57552 85.0008 8.83424 95.3503 14.4452 106.405C21.355 120.019 34.5508 133.882 52.6053 146.495C71.1541 159.455 93.9995 170.465 118.672 178.339C153.031 189.305 187.48 193.191 215.671 189.285C243.832 185.381 262.372 174.168 267.873 157.713C271.002 148.355 269.743 138.005 264.132 126.95C257.223 113.336 244.027 99.4734 225.972 86.8601C207.424 73.9009 184.578 62.8905 159.906 55.0164C134.262 46.832 108.565 42.59 85.4603 42.59Z" fill="#484848"/>
<path d="M180.268 191.528C175.191 191.528 169.988 191.303 164.67 190.849C148.688 189.487 132.385 186.125 116.218 180.855C94.4814 173.77 74.3403 163.581 57.9722 151.389C42.066 139.542 30.146 126.159 23.4972 112.687C20.3357 106.28 18.3974 99.9089 17.7379 93.752C17.0584 87.4037 17.7395 81.2746 19.7627 75.5378C22.9195 66.5828 29.1545 58.9326 38.2929 52.7974C47.1117 46.8768 58.2518 42.6101 71.4027 40.1146C84.549 37.6206 99.0421 37.023 114.482 38.3387C130.464 39.7007 146.767 43.0625 162.934 48.333C184.671 55.4179 204.812 65.6068 221.18 77.7985C237.086 89.6459 249.006 103.028 255.655 116.5C258.816 122.907 260.755 129.279 261.414 135.436C262.094 141.784 261.413 147.913 259.389 153.65C256.233 162.605 249.998 170.255 240.859 176.39C232.04 182.311 220.9 186.577 207.749 189.073C199.13 190.708 189.931 191.528 180.268 191.528ZM99.0313 37.8816C89.4017 37.8816 80.1428 38.697 71.4475 40.3462C44.4769 45.4623 26.1999 57.9875 19.9851 75.6165C16.0267 86.8447 17.3132 99.6278 23.7072 112.584C37.4435 140.42 72.9194 166.495 116.289 180.631C137.951 187.692 159.852 191.306 180.121 191.306C189.75 191.306 199.009 190.491 207.705 188.841C234.675 183.725 252.952 171.2 259.167 153.571C263.125 142.343 261.839 129.56 255.445 116.604C241.709 88.7672 206.233 62.6928 162.863 48.5569C141.201 41.4951 119.301 37.8816 99.0313 37.8816Z" fill="#484848"/>
<path d="M168.23 192.268C165.191 192.268 162.116 192.177 159.001 191.995C143.985 191.114 128.79 188.137 113.835 183.143C104.247 179.942 95.0158 175.982 86.3978 171.375C78.0362 166.904 70.2414 161.819 63.2311 156.26C49.43 145.316 38.8227 132.637 32.5585 119.595C25.2424 104.362 24.0269 89.1178 29.0433 75.5053C32.56 65.9635 38.9046 57.6864 47.8994 50.9057C56.5838 44.3597 67.3594 39.4753 79.9297 36.3899C92.4953 33.3045 106.221 32.171 120.725 33.0219C135.74 33.9021 150.936 36.8794 165.89 41.8735C175.478 45.0747 184.709 49.0341 193.327 53.6421C201.689 58.1126 209.482 63.1978 216.494 68.757C230.295 79.701 240.902 92.3792 247.167 105.422C254.483 120.654 255.698 135.899 250.682 149.511C247.165 159.053 240.821 167.33 231.826 174.111C223.141 180.657 212.366 185.541 199.796 188.627C189.928 191.05 179.344 192.268 168.23 192.268ZM111.611 32.9663C100.588 32.9663 89.9392 34.177 79.9883 36.6215C54.2085 42.9513 36.1956 56.7892 29.2657 75.5887C24.271 89.1394 25.4834 104.322 32.7716 119.494C45.7882 146.593 76.1195 170.303 113.909 182.919C143.459 192.785 173.942 194.73 199.738 188.397C225.518 182.067 243.531 168.229 250.461 149.429C255.456 135.879 254.243 120.696 246.955 105.524C233.939 78.4255 203.607 54.7153 165.818 42.0989C147.666 36.0393 129.163 32.9679 111.611 32.9679V32.9663Z" fill="#484848"/>
<path d="M157.132 193.195C155.872 193.195 154.605 193.176 153.332 193.14C139.286 192.742 125.196 190.149 111.453 185.433C103.252 182.62 95.3679 179.099 88.0195 174.969C80.8795 170.959 74.209 166.354 68.1934 161.283C56.4031 151.346 47.1179 139.563 41.3386 127.208C37.3447 118.668 35.0327 109.96 34.4674 101.326C33.882 92.3962 35.1809 83.6991 38.327 75.476C42.2035 65.3458 48.6577 56.4449 57.5105 49.0171C66.059 41.8457 76.4716 36.3451 88.4596 32.6683C100.446 28.9915 113.402 27.3237 126.97 27.7067C141.017 28.1051 155.107 30.6978 168.85 35.4139C177.051 38.2275 184.935 41.7484 192.283 45.8777C199.423 49.888 206.094 54.4929 212.109 59.5642C223.9 69.5014 233.185 81.2839 238.964 93.6393C242.958 102.179 245.27 110.887 245.835 119.521C246.421 128.451 245.122 137.15 241.976 145.371C238.099 155.501 231.645 164.402 222.792 171.83C214.244 179.001 203.831 184.502 191.843 188.179C180.981 191.511 169.322 193.195 157.132 193.195ZM123.217 27.8673C111.191 27.8673 99.4761 29.5381 88.5307 32.8953C63.9416 40.4373 46.1913 55.5909 38.5478 75.5609C32.3361 91.7955 33.3755 109.619 41.5533 127.109C53.62 152.913 79.1265 174.091 111.531 185.211C138.676 194.527 167.174 195.502 191.775 187.955C216.364 180.413 234.115 165.259 241.758 145.289C247.97 129.055 246.93 111.231 238.753 93.7412C226.686 67.9371 201.181 46.7594 168.775 35.6394C153.708 30.4693 138.22 27.8673 123.217 27.8673Z" fill="#484848"/>
<path d="M146.948 194.288C134.112 194.288 121.373 192.08 109.072 187.722C95.371 182.868 83.1622 175.7 72.7851 166.419C67.8104 161.97 63.3207 157.066 59.4411 151.846C55.5908 146.664 52.3227 141.146 49.7281 135.443C45.3588 125.843 42.9263 115.87 42.4939 105.802C42.0475 95.3796 43.768 85.1661 47.6106 75.4467C51.847 64.7281 58.4109 55.2018 67.1216 47.1285C75.5342 39.3332 85.5823 33.2165 96.9896 28.9467C108.395 24.6784 120.584 22.4732 133.216 22.3929C146.291 22.3111 159.279 24.5178 171.809 28.9575C185.509 33.811 197.718 40.9794 208.095 50.2602C213.07 54.7091 217.56 59.6136 221.439 64.8331C225.29 70.0156 228.558 75.5331 231.152 81.236C235.522 90.8365 237.954 100.809 238.387 110.878C238.833 121.3 237.112 131.513 233.27 141.233C229.033 151.951 222.47 161.478 213.759 169.551C205.346 177.346 195.298 183.463 183.891 187.733C172.485 192.001 160.296 194.206 147.663 194.286C147.423 194.286 147.184 194.288 146.945 194.288H146.948ZM134.015 22.6493C95.7293 22.6493 60.8558 42.5761 47.8299 75.5347C40.3054 94.5736 41.056 115.816 49.9427 135.348C60.6905 158.968 82.271 177.978 109.151 187.501C160.218 205.593 215.801 184.799 233.052 141.148C240.577 122.109 239.826 100.866 230.939 81.3348C220.191 57.7142 198.611 38.7047 171.731 29.1814C159.22 24.7494 146.437 22.6508 134.015 22.6508V22.6493Z" fill="#484848"/>
<path d="M137.7 195.531C127.077 195.531 116.666 193.679 106.689 190.01C95.4605 185.881 85.4479 179.692 76.9287 171.614C68.6999 163.812 62.1947 154.578 57.5923 144.167C52.9157 133.589 50.4415 122.334 50.2345 110.717C50.0199 98.6889 52.2609 86.8122 56.8926 75.4158C61.4889 64.1089 68.1624 53.9571 76.731 45.2383C85.0062 36.8192 94.6914 30.0848 105.516 25.2251C116.341 20.3654 127.761 17.6243 139.459 17.0777C151.57 16.5125 163.448 18.3347 174.768 22.498C185.996 26.6272 196.008 32.8165 204.528 40.8944C212.756 48.6959 219.262 57.9304 223.864 68.3416C228.539 78.9196 231.015 90.174 231.222 101.791C231.436 113.819 229.195 125.696 224.564 137.093C219.967 148.399 213.294 158.551 204.725 167.27C196.449 175.689 186.765 182.424 175.94 187.283C165.115 192.143 153.695 194.884 141.998 195.431C140.563 195.497 139.128 195.531 137.7 195.531ZM143.8 17.2337C107.064 17.2337 71.7255 39.5478 57.1104 75.5053C47.9627 98.0095 48.2113 122.361 57.807 144.072C67.2389 165.409 84.6278 181.645 106.769 189.79C116.887 193.511 127.329 195.276 137.656 195.276C174.392 195.276 209.731 172.962 224.346 137.004C233.494 114.5 233.245 90.1493 223.648 68.4374C214.216 47.1007 196.827 30.8646 174.686 22.7203C164.568 18.9987 154.128 17.2337 143.8 17.2337Z" fill="#484848"/>
<path d="M129.326 196.907C120.667 196.907 112.28 195.364 104.307 192.299C95.3479 188.854 87.3538 183.639 80.5459 176.801C73.9697 170.195 68.6676 162.25 64.788 153.188C54.7954 129.848 55.3004 101.492 66.1764 75.3864C71.131 63.4912 77.9173 52.7124 86.3438 43.3498C94.483 34.3052 103.804 26.9562 114.048 21.505C124.292 16.0539 134.944 12.7755 145.706 11.7624C156.849 10.7139 167.625 12.1531 177.73 16.0384C186.689 19.4836 194.683 24.6985 201.491 31.5364C208.068 38.1426 213.37 46.0877 217.249 55.1493C227.242 78.4888 226.735 106.846 215.861 132.951C210.906 144.846 204.12 155.625 195.694 164.988C187.554 174.032 178.234 181.381 167.991 186.832C157.747 192.283 147.094 195.562 136.333 196.575C133.981 196.796 131.644 196.907 129.326 196.907ZM152.738 11.6868C118.076 11.6868 82.6325 36.4964 66.3926 75.4775C55.5429 101.524 55.0363 129.815 65.0042 153.095C72.8824 171.497 86.8704 185.342 104.392 192.08C112.451 195.179 120.854 196.652 129.298 196.652C163.96 196.655 199.403 171.842 215.643 132.863C226.493 106.816 226.999 78.5259 217.032 55.245C209.153 36.8439 195.165 22.9983 177.644 16.2608C169.585 13.1615 161.181 11.6868 152.738 11.6868Z" fill="#484848"/>
<path d="M121.749 198.4C114.819 198.4 108.181 197.126 101.924 194.586C88.2295 189.027 77.5898 177.851 71.1572 162.265C66.2876 150.464 64.0435 136.425 64.669 121.667C64.9871 114.148 66.0435 106.45 67.8073 98.7878C69.6236 90.8967 72.1966 83.0134 75.4569 75.3556C80.7714 62.872 87.6673 51.4678 95.9517 41.4596C103.955 31.7912 112.911 23.826 122.572 17.785C132.235 11.7408 142.117 7.9281 151.942 6.44872C162.119 4.91684 171.79 5.97156 180.685 9.58043C194.379 15.1381 205.019 26.3153 211.451 41.9013C216.321 53.7023 218.565 67.7409 217.94 82.4992C217.621 90.0181 216.565 97.7161 214.801 105.379C212.985 113.27 210.412 121.153 207.152 128.811C201.837 141.294 194.941 152.699 186.657 162.707C178.654 172.375 169.697 180.34 160.037 186.381C150.373 192.426 140.492 196.238 130.666 197.718C127.647 198.172 124.672 198.4 121.749 198.4ZM160.763 5.99009C148.433 5.99009 135.412 10.036 122.7 17.9857C102.874 30.3844 86.1738 50.7914 75.6762 75.4498C62.9284 105.391 61.3222 137.812 71.378 162.177C77.7859 177.703 88.3808 188.835 102.015 194.37C119.538 201.482 140.101 198.575 159.915 186.185C179.741 173.787 196.441 153.38 206.939 128.721C219.686 98.7801 221.293 66.3589 211.237 41.9939C204.829 26.4682 194.234 15.3358 180.6 9.80126C174.32 7.25327 167.649 5.99009 160.763 5.99009Z" fill="#484848"/>
<path d="M114.902 200C109.476 200 104.338 198.958 99.5425 196.876C91.8589 193.542 85.519 187.742 80.7018 179.638C76.0515 171.818 73.0074 162.191 71.6514 151.026C70.2969 139.866 70.6969 127.731 72.8437 114.956C75.0646 101.733 79.0678 88.3997 84.7436 75.3278C90.4179 62.2558 97.4251 50.2262 105.567 39.5725C113.435 29.2802 122.027 20.7005 131.105 14.068C140.188 7.4324 149.3 3.08229 158.188 1.1381C167.399 -0.877126 175.965 -0.208472 183.65 3.12553C191.333 6.45953 197.673 12.2597 202.491 20.3638C207.141 28.1838 210.185 37.8106 211.541 48.9754C212.895 60.1356 212.495 72.2717 210.349 85.0456C208.128 98.2689 204.125 111.602 198.449 124.675C192.774 137.747 185.767 149.777 177.625 160.431C169.758 170.723 161.166 179.303 152.088 185.935C143.005 192.571 133.893 196.921 125.004 198.865C121.542 199.622 118.169 200 114.902 200ZM168.205 0.225458C156.627 0.225458 143.944 4.97707 131.242 14.2564C112.607 27.8703 96.1694 49.5915 84.9583 75.4204C73.7457 101.249 69.1031 128.09 71.8846 150.997C74.6631 173.882 84.5197 190.098 99.6367 196.658C114.754 203.22 133.332 199.342 151.949 185.742C170.584 172.128 187.021 150.407 198.233 124.578C209.444 98.7492 214.088 71.9088 211.306 49.0016C208.528 26.1161 198.671 9.90009 183.554 3.34018C178.751 1.25546 173.597 0.225458 168.205 0.225458Z" fill="#484848"/>
</g>
<defs>
<clipPath id="clip0_20_148">
<rect width="278" height="200" fill="white"/>
</clipPath>
</defs>
</svg>
